<?xml version="1.0" encoding="UTF-8" standalone="no"?><!DOCTYPE svg PUBLIC "-//W3C//DTD SVG 1.1//EN" "http://www.w3.org/Graphics/SVG/1.1/DTD/svg11.dtd"><svg width="100%" height="100%" viewBox="0 0 438 438" version="1.1" xmlns="http://www.w3.org/2000/svg" xmlns:xlink="http://www.w3.org/1999/xlink" xml:space="preserve" style="fill-rule:evenodd;clip-rule:evenodd;stroke-linecap:round;stroke-linejoin:round;stroke-miterlimit:1.5;"><ellipse cx="218.504" cy="218.345" rx="167.05" ry="163.975" style="fill:none;stroke:#000;stroke-width:33.33px;"/><g><rect x="193.449" y="27.623" width="48.11" height="43.262"/><circle cx="217.697" cy="27.862" r="23.862"/></g><g><rect x="193.659" y="365.876" width="48.11" height="43.262"/><circle cx="217.521" cy="408.899" r="23.862"/></g><g><path d="M412.385,242.4l0,-48.11l-43.262,-0l-0,48.11l43.262,-0Z"/><path d="M436.008,218.537c-0,13.17 -10.692,23.863 -23.862,23.863c-13.17,-0 -23.863,-10.693 -23.863,-23.863c0,-13.169 10.693,-23.862 23.863,-23.862c13.17,0 23.862,10.693 23.862,23.862Z"/></g><g><path d="M23.623,189.008l-0,48.111l43.262,-0l0,-48.111l-43.262,0Z"/><path d="M-0,212.871c-0,-13.17 10.692,-23.863 23.862,-23.863c13.17,0 23.862,10.693 23.862,23.863c0,13.17 -10.692,23.862 -23.862,23.862c-13.17,-0 -23.862,-10.692 -23.862,-23.862Z"/></g><ellipse cx="218.504" cy="218.504" rx="76.599" ry="75.956"/></svg>